<svg width="914" height="182" viewBox="0 0 914 182" fill="none" xmlns="http://www.w3.org/2000/svg">
<path d="M0.904 64H29.328C48.6 64 54.848 55.2 54.848 46.576C54.848 37.864 48.16 32.232 34.608 31.704V31.352C47.544 30.208 52.384 23.872 52.384 17.36C52.384 9.792 46.84 2.664 28.536 2.664H0.904V3.71999C8.56 3.984 10.496 6.008 10.496 9.528V57.048C10.496 60.656 8.56 62.592 0.904 62.856V64ZM20.792 30.824V4.336H28.272C39.096 4.336 41.648 10.144 41.648 17.624C41.648 25.896 38.48 30.824 28.624 30.824H20.792ZM20.792 62.328V32.496H28.888C39.8 32.496 43.848 38.744 43.848 46.752C43.848 57.224 40.944 62.328 29.68 62.328H20.792ZM81.2899 64.704C90.0899 64.704 95.1059 60.128 98.6259 54.408L97.6579 53.704C94.0499 58.368 90.7939 61.184 85.2499 61.184C76.0099 61.184 71.4339 53.88 71.4339 43.672V43.496V41.472H98.4499C99.1539 31 93.0819 22.728 81.2899 22.728C70.5539 22.728 61.4019 31.616 61.4019 44.2C61.4019 56.344 69.4979 64.704 81.2899 64.704ZM80.6739 24.4C87.2739 24.4 89.4739 30.208 88.5939 39.888H71.5219C72.1379 29.768 75.3939 24.4 80.6739 24.4ZM120.529 64H150.625V62.856C142.265 62.592 140.417 60.832 140.417 57.048V36.984H146.225C165.761 36.984 172.097 28.536 172.097 19.56C172.097 9.968 166.025 2.664 146.665 2.664H120.529V3.71999C128.185 3.984 130.121 6.008 130.121 9.528V57.048C130.121 60.656 128.185 62.592 120.529 62.856V64ZM140.417 35.312V4.336H146.665C158.105 4.336 160.921 10.672 160.921 19.472C160.921 29.504 158.369 35.312 146.313 35.312H140.417ZM176.707 64H199.851V62.944C193.867 62.768 192.195 62.24 192.195 59.6V34.168C194.747 29.856 197.123 27.304 200.555 26.864C200.291 27.568 200.027 28.712 200.027 29.592C200.027 32.76 202.315 35.048 205.571 35.048C208.739 35.048 210.939 32.672 210.939 29.328C210.939 25.896 208.739 22.904 203.899 22.904C199.411 22.904 195.099 26.424 192.019 32.144V23.256L176.707 23.872V24.928C181.723 25.016 182.955 26.688 182.955 29.328V59.6C182.955 62.24 181.723 62.856 176.707 62.944V64ZM233.571 64.704C242.371 64.704 247.387 60.128 250.907 54.408L249.939 53.704C246.331 58.368 243.075 61.184 237.531 61.184C228.291 61.184 223.715 53.88 223.715 43.672V43.496V41.472H250.731C251.435 31 245.363 22.728 233.571 22.728C222.835 22.728 213.683 31.616 213.683 44.2C213.683 56.344 221.779 64.704 233.571 64.704ZM232.955 24.4C239.555 24.4 241.755 30.208 240.875 39.888H223.803C224.419 29.768 227.675 24.4 232.955 24.4ZM253.932 80.808H277.78V79.752C271.092 79.664 269.42 79.136 269.42 76.408V62.152C272.588 63.824 275.58 64.704 279.98 64.704C291.508 64.704 298.636 55.288 298.636 43.144C298.636 31.352 292.828 22.728 282.62 22.728C277.252 22.728 272.94 25.368 269.244 29.064V23.256L253.932 23.872V24.928C258.948 25.016 260.18 26.688 260.18 29.328V76.408C260.18 79.136 259.036 79.664 253.932 79.752V80.808ZM278.484 63.032C274.524 63.032 271.268 61.184 269.42 56.344V30.736C272.148 27.92 274.876 26.336 278.22 26.336C285.172 26.336 288.692 34.168 288.692 43.672C288.692 56.344 285.26 63.032 278.484 63.032ZM316.315 64.528C321.771 64.528 325.907 61.448 329.251 57.576H329.603C330.131 62.328 331.979 64.352 336.907 64.352C339.987 64.352 342.275 63.296 345.355 61.36L345.003 60.48C339.899 62.592 338.315 60.744 338.315 56.432V35.928C338.315 26.864 333.035 22.992 323.091 22.992C313.147 22.992 306.723 26.776 306.723 31.968C306.723 34.872 308.747 37.16 311.827 37.16C315.259 37.16 317.107 35.048 317.107 31.968C317.107 30.208 316.227 28.624 314.731 27.216C316.315 25.632 319.043 24.664 322.035 24.664C327.227 24.664 329.163 27.832 329.163 34.432V40.768C327.139 41.736 316.843 42.264 310.331 45.872C306.635 47.896 305.051 51.328 305.051 54.76C305.051 59.688 308.483 64.528 316.315 64.528ZM321.419 60.48C316.931 60.48 314.907 57.488 314.907 53.264C314.907 47.28 317.459 44.728 329.163 42.44V55.552C327.403 58.016 324.587 60.48 321.419 60.48ZM346.606 64H369.75V62.944C363.766 62.768 362.094 62.24 362.094 59.6V34.168C364.646 29.856 367.022 27.304 370.454 26.864C370.19 27.568 369.926 28.712 369.926 29.592C369.926 32.76 372.214 35.048 375.47 35.048C378.638 35.048 380.838 32.672 380.838 29.328C380.838 25.896 378.638 22.904 373.798 22.904C369.31 22.904 364.998 26.424 361.918 32.144V23.256L346.606 23.872V24.928C351.622 25.016 352.854 26.688 352.854 29.328V59.6C352.854 62.24 351.622 62.856 346.606 62.944V64ZM403.47 64.704C412.27 64.704 417.286 60.128 420.806 54.408L419.838 53.704C416.23 58.368 412.974 61.184 407.43 61.184C398.19 61.184 393.614 53.88 393.614 43.672V43.496V41.472H420.63C421.334 31 415.262 22.728 403.47 22.728C392.734 22.728 383.582 31.616 383.582 44.2C383.582 56.344 391.678 64.704 403.47 64.704ZM402.854 24.4C409.454 24.4 411.654 30.208 410.774 39.888H393.702C394.318 29.768 397.574 24.4 402.854 24.4ZM443.631 64.704C448.735 64.704 452.695 62.504 455.599 59.512V64.352L470.999 64V63.12C465.983 63.032 464.663 61.712 464.663 59.512V0.903999L448.383 1.432V2.48799C454.543 2.664 455.423 3.984 455.423 6.976V24.84C453.047 23.608 450.671 22.728 446.447 22.728C434.391 22.728 426.207 32.232 426.207 44.288C426.207 55.816 432.719 64.704 443.631 64.704ZM447.943 61.008C440.287 61.008 436.239 53.528 436.239 43.848C436.239 32.144 440.287 24.4 446.975 24.4C451.023 24.4 453.487 26.16 455.423 28.888V57.664C453.575 59.688 451.375 61.008 447.943 61.008ZM490.662 64H520.318V62.856C512.398 62.592 510.55 60.744 510.55 57.048V33.904H515.302C522.606 33.904 526.302 36.544 528.678 45.872H529.822V20.264H528.678C526.302 29.592 522.606 32.144 515.302 32.144H510.55V4.336H520.23C531.142 4.336 535.63 9.88 540.998 22.992L542.142 22.904L541.438 2.664H490.662V3.808C498.318 4.072 500.254 6.008 500.254 9.528V57.048C500.254 60.656 498.318 62.592 490.662 62.856V64ZM562.213 64.704C573.389 64.704 582.717 56.08 582.717 43.496C582.717 31 573.829 22.728 562.213 22.728C550.949 22.728 541.621 31.352 541.621 43.848C541.621 56.432 550.421 64.704 562.213 64.704ZM562.565 63.032C555.877 63.032 551.829 57.4 551.829 43.672C551.829 29.944 555.173 24.4 561.773 24.4C568.461 24.4 572.421 29.944 572.421 43.672C572.421 57.4 569.077 63.032 562.565 63.032ZM587.403 64H610.547V62.944C604.563 62.768 602.891 62.24 602.891 59.6V34.168C605.443 29.856 607.819 27.304 611.251 26.864C610.987 27.568 610.723 28.712 610.723 29.592C610.723 32.76 613.011 35.048 616.267 35.048C619.435 35.048 621.635 32.672 621.635 29.328C621.635 25.896 619.435 22.904 614.595 22.904C610.107 22.904 605.795 26.424 602.715 32.144V23.256L587.403 23.872V24.928C592.419 25.016 593.651 26.688 593.651 29.328V59.6C593.651 62.24 592.419 62.856 587.403 62.944V64ZM653.718 64H684.87V62.856C677.038 62.592 674.398 60.656 674.398 57.048V4.336H677.83C684.518 4.336 690.15 10.76 695.606 21.848L696.838 21.76L696.31 2.664H642.366L641.838 21.76L643.07 21.848C648.614 10.32 654.246 4.336 660.758 4.336H664.19V57.048C664.19 60.656 661.55 62.592 653.718 62.856V64ZM700.903 64H721.671V62.944C717.623 62.856 716.391 62.24 716.391 59.6V34.872C718.855 30.384 722.111 27.48 725.895 27.48C731.175 27.48 733.111 30.824 733.111 37.16V59.6C733.111 62.24 731.967 62.856 727.831 62.944V64H748.687V62.944C743.495 62.856 742.351 62.24 742.351 59.6V35.312C742.351 27.216 738.479 22.992 731.527 22.992C725.631 22.992 720.351 26.512 716.391 32.76V0.903999L700.111 1.432V2.48799C706.271 2.664 707.151 3.984 707.151 6.976V59.6C707.151 62.24 706.007 62.856 700.903 62.944V64ZM771.798 64.704C780.598 64.704 785.614 60.128 789.134 54.408L788.166 53.704C784.558 58.368 781.302 61.184 775.758 61.184C766.518 61.184 761.942 53.88 761.942 43.672V43.496V41.472H788.958C789.662 31 783.59 22.728 771.798 22.728C761.062 22.728 751.91 31.616 751.91 44.2C751.91 56.344 760.006 64.704 771.798 64.704ZM771.182 24.4C777.782 24.4 779.982 30.208 779.102 39.888H762.03C762.646 29.768 765.902 24.4 771.182 24.4ZM0.904 164H24.84V162.856C15.952 161.624 13.752 157.928 13.752 149.304V108.384H14.192L37.336 164.088H39.36L60.656 108.56H61.096V157.048C61.096 160.832 59.688 162.592 52.208 162.856V164H80.896V162.856C73.328 162.592 71.304 160.656 71.304 157.048V109.528C71.304 106.008 73.328 103.984 80.896 103.72V102.664H60.656L42.528 150.096H42.176L22.992 102.664H0.904V103.72C8.472 103.896 11.552 108.208 11.552 113.576V149.304C11.552 157.928 9.176 161.536 0.904 162.856V164ZM106.228 164.704C117.404 164.704 126.732 156.08 126.732 143.496C126.732 131 117.844 122.728 106.228 122.728C94.9643 122.728 85.6363 131.352 85.6363 143.848C85.6363 156.432 94.4363 164.704 106.228 164.704ZM106.58 163.032C99.8923 163.032 95.8443 157.4 95.8443 143.672C95.8443 129.944 99.1883 124.4 105.788 124.4C112.476 124.4 116.436 129.944 116.436 143.672C116.436 157.4 113.092 163.032 106.58 163.032ZM147.962 164.616C153.77 164.616 158.786 161.36 162.57 155.024V164H177.97V163.032C172.954 162.856 171.634 161.976 171.634 159.688V123.256L156.058 123.696V124.752C161.074 124.84 162.394 126.336 162.394 128.976V152.912C160.106 157.4 157.026 160.128 153.154 160.128C147.874 160.128 146.026 156.696 146.026 150.36V123.256L130.362 123.608V124.664C135.466 124.752 136.786 126.336 136.786 128.976V152.296C136.786 160.568 141.098 164.616 147.962 164.616ZM180.489 164H201.169V162.944C197.209 162.856 195.977 162.24 195.977 159.6V134.872C198.353 130.384 201.697 127.48 205.481 127.48C210.761 127.48 212.609 130.648 212.609 136.984V159.6C212.609 162.24 211.377 162.856 207.329 162.944V164H228.097V162.944C222.993 162.856 221.849 162.24 221.849 159.6V135.312C221.849 127.216 217.977 122.992 211.025 122.992C205.129 122.992 199.761 126.512 195.801 132.76V123.256L180.489 123.872V124.928C185.505 125.016 186.737 126.688 186.737 129.328V159.6C186.737 162.24 185.505 162.856 180.489 162.944V164ZM247.578 164.88C253.122 164.88 256.994 161.8 259.81 156.08L258.754 155.376C256.466 159.512 253.914 161.272 251.362 161.272C247.754 161.272 246.258 159.248 246.258 153.968V126.512H258.754V123.784H246.258V109L237.018 112.344V123.52L228.834 125.456V126.6H237.018V153.176C237.018 161.272 240.714 164.88 247.578 164.88ZM274.206 164.528C279.662 164.528 283.798 161.448 287.142 157.576H287.494C288.022 162.328 289.87 164.352 294.798 164.352C297.878 164.352 300.166 163.296 303.246 161.36L302.894 160.48C297.79 162.592 296.206 160.744 296.206 156.432V135.928C296.206 126.864 290.926 122.992 280.982 122.992C271.038 122.992 264.614 126.776 264.614 131.968C264.614 134.872 266.638 137.16 269.718 137.16C273.15 137.16 274.998 135.048 274.998 131.968C274.998 130.208 274.118 128.624 272.622 127.216C274.206 125.632 276.934 124.664 279.926 124.664C285.118 124.664 287.054 127.832 287.054 134.432V140.768C285.03 141.736 274.734 142.264 268.222 145.872C264.526 147.896 262.942 151.328 262.942 154.76C262.942 159.688 266.374 164.528 274.206 164.528ZM279.31 160.48C274.822 160.48 272.798 157.488 272.798 153.264C272.798 147.28 275.35 144.728 287.054 142.44V155.552C285.294 158.016 282.478 160.48 279.31 160.48ZM315.496 115.688C319.016 115.688 321.304 113.224 321.304 109.704C321.304 106.184 319.016 103.896 315.496 103.896C312.064 103.896 309.776 106.36 309.776 109.968C309.776 113.488 312.064 115.688 315.496 115.688ZM304.936 164H327.024V162.944C321.568 162.856 320.6 162.24 320.6 159.6V123.256L304.936 123.872V124.928C310.04 125.016 311.36 126.688 311.36 129.328V159.6C311.36 162.24 310.04 162.856 304.936 162.944V164ZM330.192 164H350.872V162.944C346.912 162.856 345.68 162.24 345.68 159.6V134.872C348.056 130.384 351.4 127.48 355.184 127.48C360.464 127.48 362.312 130.648 362.312 136.984V159.6C362.312 162.24 361.08 162.856 357.032 162.944V164H377.8V162.944C372.696 162.856 371.552 162.24 371.552 159.6V135.312C371.552 127.216 367.68 122.992 360.728 122.992C354.832 122.992 349.464 126.512 345.504 132.76V123.256L330.192 123.872V124.928C335.208 125.016 336.44 126.688 336.44 129.328V159.6C336.44 162.24 335.208 162.856 330.192 162.944V164ZM381.617 164.704H382.585L385.489 161.536C388.129 163.296 393.849 164.704 397.105 164.704C406.697 164.704 411.977 158.544 411.977 151.152C411.977 144.288 407.665 141.12 398.689 138.656C391.913 136.896 388.393 134.96 388.393 131.176C388.393 127.128 391.473 124.4 395.521 124.4C400.889 124.4 403.441 127.568 408.545 135.84H409.777V122.728H408.809L406.609 125.456C404.233 124.048 400.537 122.728 396.665 122.728C387.601 122.728 381.793 128.096 381.793 135.664C381.793 142.176 385.577 144.992 394.553 147.544C403.265 150.008 405.729 152.208 405.729 156.256C405.729 159.688 403.089 163.032 398.161 163.032C391.825 163.032 388.481 159.864 382.849 150.096H381.617V164.704ZM472.831 155.64C474.591 160.568 473.359 162.416 464.999 162.856V164H493.863V162.856C487.087 161.888 485.767 160.392 483.567 154.408L463.855 100.904H460.159L441.415 148.336C437.719 157.84 434.551 161.272 428.743 162.856V164H449.335V162.856C441.327 161.536 439.831 158.544 443.791 148.16L446.783 140.504H467.551L472.831 155.64ZM447.399 138.744L457.431 112.784H457.783L466.935 138.744H447.399ZM493.559 164H514.239V162.944C510.279 162.856 509.047 162.24 509.047 159.6V134.872C511.423 130.384 514.767 127.48 518.551 127.48C523.831 127.48 525.679 130.648 525.679 136.984V159.6C525.679 162.24 524.447 162.856 520.399 162.944V164H541.167V162.944C536.063 162.856 534.919 162.24 534.919 159.6V135.312C534.919 127.216 531.047 122.992 524.095 122.992C518.199 122.992 512.831 126.512 508.871 132.76V123.256L493.559 123.872V124.928C498.575 125.016 499.807 126.688 499.807 129.328V159.6C499.807 162.24 498.575 162.856 493.559 162.944V164ZM561.881 164.704C566.985 164.704 570.945 162.504 573.849 159.512V164.352L589.249 164V163.12C584.233 163.032 582.913 161.712 582.913 159.512V100.904L566.633 101.432V102.488C572.793 102.664 573.673 103.984 573.673 106.976V124.84C571.297 123.608 568.921 122.728 564.697 122.728C552.641 122.728 544.457 132.232 544.457 144.288C544.457 155.816 550.969 164.704 561.881 164.704ZM566.193 161.008C558.537 161.008 554.489 153.528 554.489 143.848C554.489 132.144 558.537 124.4 565.225 124.4C569.273 124.4 571.737 126.16 573.673 128.888V157.664C571.825 159.688 569.625 161.008 566.193 161.008ZM608.912 164H637.336C656.608 164 662.856 155.2 662.856 146.576C662.856 137.864 656.168 132.232 642.616 131.704V131.352C655.552 130.208 660.392 123.872 660.392 117.36C660.392 109.792 654.848 102.664 636.544 102.664H608.912V103.72C616.568 103.984 618.504 106.008 618.504 109.528V157.048C618.504 160.656 616.568 162.592 608.912 162.856V164ZM628.8 130.824V104.336H636.28C647.104 104.336 649.656 110.144 649.656 117.624C649.656 125.896 646.488 130.824 636.632 130.824H628.8ZM628.8 162.328V132.496H636.896C647.808 132.496 651.856 138.744 651.856 146.752C651.856 157.224 648.952 162.328 637.688 162.328H628.8ZM689.298 164.704C698.098 164.704 703.114 160.128 706.634 154.408L705.666 153.704C702.058 158.368 698.802 161.184 693.258 161.184C684.018 161.184 679.442 153.88 679.442 143.672V143.496V141.472H706.458C707.162 131 701.09 122.728 689.298 122.728C678.562 122.728 669.41 131.616 669.41 144.2C669.41 156.344 677.506 164.704 689.298 164.704ZM688.682 124.4C695.282 124.4 697.482 130.208 696.602 139.888H679.53C680.146 129.768 683.402 124.4 688.682 124.4ZM730.527 164.968L729.999 166.2C725.687 176.848 722.343 179.312 718.823 179.752C719.967 178.784 720.759 177.2 720.759 175.352C720.759 172.36 718.559 170.072 715.831 170.072C712.487 170.072 710.815 172.712 710.815 175.44C710.815 178.872 713.455 181.688 717.679 181.688C722.695 181.688 726.919 178.52 731.583 167.256L746.015 132.056C748.039 127.392 750.767 124.928 753.847 124.488V123.432H737.919V124.488C744.255 125.368 745.487 127.48 742.759 134.52L734.927 154.584L724.543 130.032C723.135 126.776 723.751 124.928 729.031 124.488V123.432H707.207V124.488C711.519 125.016 713.015 126.512 715.127 131.088L730.527 164.968ZM774.392 164.704C785.568 164.704 794.896 156.08 794.896 143.496C794.896 131 786.008 122.728 774.392 122.728C763.128 122.728 753.8 131.352 753.8 143.848C753.8 156.432 762.6 164.704 774.392 164.704ZM774.744 163.032C768.056 163.032 764.008 157.4 764.008 143.672C764.008 129.944 767.352 124.4 773.952 124.4C780.64 124.4 784.6 129.944 784.6 143.672C784.6 157.4 781.256 163.032 774.744 163.032ZM799.582 164H820.262V162.944C816.302 162.856 815.07 162.24 815.07 159.6V134.872C817.446 130.384 820.79 127.48 824.574 127.48C829.854 127.48 831.702 130.648 831.702 136.984V159.6C831.702 162.24 830.47 162.856 826.422 162.944V164H847.19V162.944C842.086 162.856 840.942 162.24 840.942 159.6V135.312C840.942 127.216 837.07 122.992 830.118 122.992C824.222 122.992 818.854 126.512 814.894 132.76V123.256L799.582 123.872V124.928C804.598 125.016 805.83 126.688 805.83 129.328V159.6C805.83 162.24 804.598 162.856 799.582 162.944V164ZM867.904 164.704C873.008 164.704 876.968 162.504 879.872 159.512V164.352L895.272 164V163.12C890.256 163.032 888.936 161.712 888.936 159.512V100.904L872.656 101.432V102.488C878.816 102.664 879.696 103.984 879.696 106.976V124.84C877.32 123.608 874.944 122.728 870.72 122.728C858.664 122.728 850.48 132.232 850.48 144.288C850.48 155.816 856.992 164.704 867.904 164.704ZM872.216 161.008C864.56 161.008 860.512 153.528 860.512 143.848C860.512 132.144 864.56 124.4 871.248 124.4C875.296 124.4 877.76 126.16 879.696 128.888V157.664C877.848 159.688 875.648 161.008 872.216 161.008ZM907.233 146.928H908.641C909.873 129.944 913.569 114.984 913.569 107.328C913.569 102.664 911.457 100.2 907.937 100.2C904.329 100.2 902.393 102.664 902.393 107.328C902.393 114.984 906.089 129.944 907.233 146.928ZM907.937 165.408C911.281 165.408 913.921 162.768 913.921 159.512C913.921 156.344 911.281 153.704 907.937 153.704C904.593 153.704 901.953 156.344 901.953 159.6C901.953 162.768 904.505 165.408 907.937 165.408Z" fill="white"/>
</svg>
