<svg width="89" height="17" viewBox="0 0 89 17" fill="none" xmlns="http://www.w3.org/2000/svg">
<path d="M2.654 10.624H7.964V13H0.17V0.399999H7.874V2.776H2.654V5.458H7.424V7.798H2.654V10.624ZM16.2356 4H18.5576V16.6H16.2356V11.938C15.5516 12.814 14.5796 13.252 13.3196 13.252C12.1076 13.252 11.0696 12.796 10.2056 11.884C9.35356 10.96 8.92756 9.832 8.92756 8.5C8.92756 7.168 9.35356 6.046 10.2056 5.134C11.0696 4.21 12.1076 3.748 13.3196 3.748C14.5796 3.748 15.5516 4.186 16.2356 5.062V4ZM11.9516 10.336C12.4316 10.804 13.0316 11.038 13.7516 11.038C14.4716 11.038 15.0656 10.804 15.5336 10.336C16.0016 9.856 16.2356 9.244 16.2356 8.5C16.2356 7.756 16.0016 7.15 15.5336 6.682C15.0656 6.202 14.4716 5.962 13.7516 5.962C13.0316 5.962 12.4316 6.202 11.9516 6.682C11.4836 7.15 11.2496 7.756 11.2496 8.5C11.2496 9.244 11.4836 9.856 11.9516 10.336ZM26.6211 4H28.9431V13H26.6211V11.992C26.0571 12.832 25.1631 13.252 23.9391 13.252C22.9551 13.252 22.1391 12.922 21.4911 12.262C20.8551 11.602 20.5371 10.69 20.5371 9.526V4H22.8591V9.238C22.8591 9.838 23.0211 10.3 23.3451 10.624C23.6691 10.936 24.1011 11.092 24.6411 11.092C25.2411 11.092 25.7211 10.906 26.0811 10.534C26.4411 10.162 26.6211 9.604 26.6211 8.86V4ZM32.2218 2.92C31.8378 2.92 31.5018 2.782 31.2138 2.506C30.9378 2.218 30.7998 1.882 30.7998 1.498C30.7998 1.114 30.9378 0.778 31.2138 0.489999C31.5018 0.201999 31.8378 0.0579993 32.2218 0.0579993C32.6178 0.0579993 32.9538 0.201999 33.2298 0.489999C33.5178 0.778 33.6618 1.114 33.6618 1.498C33.6618 1.882 33.5178 2.218 33.2298 2.506C32.9538 2.782 32.6178 2.92 32.2218 2.92ZM31.0698 13V4H33.3918V13H31.0698ZM40.7551 3.748C41.9671 3.748 42.9991 4.21 43.8511 5.134C44.7151 6.046 45.1471 7.168 45.1471 8.5C45.1471 9.832 44.7151 10.96 43.8511 11.884C42.9991 12.796 41.9671 13.252 40.7551 13.252C39.4951 13.252 38.5231 12.814 37.8391 11.938V16.6H35.5171V4H37.8391V5.062C38.5231 4.186 39.4951 3.748 40.7551 3.748ZM38.5411 10.336C39.0091 10.804 39.6031 11.038 40.3231 11.038C41.0431 11.038 41.6371 10.804 42.1051 10.336C42.5851 9.856 42.8251 9.244 42.8251 8.5C42.8251 7.756 42.5851 7.15 42.1051 6.682C41.6371 6.202 41.0431 5.962 40.3231 5.962C39.6031 5.962 39.0091 6.202 38.5411 6.682C38.0731 7.15 37.8391 7.756 37.8391 8.5C37.8391 9.244 38.0731 9.856 38.5411 10.336ZM56.7387 3.748C57.7707 3.748 58.5927 4.084 59.2047 4.756C59.8287 5.428 60.1407 6.328 60.1407 7.456V13H57.8187V7.618C57.8187 7.078 57.6867 6.658 57.4227 6.358C57.1587 6.058 56.7867 5.908 56.3067 5.908C55.7787 5.908 55.3647 6.082 55.0647 6.43C54.7767 6.778 54.6327 7.282 54.6327 7.942V13H52.3107V7.618C52.3107 7.078 52.1787 6.658 51.9147 6.358C51.6507 6.058 51.2787 5.908 50.7987 5.908C50.2827 5.908 49.8687 6.082 49.5567 6.43C49.2567 6.778 49.1067 7.282 49.1067 7.942V13H46.7847V4H49.1067V4.954C49.6467 4.15 50.4807 3.748 51.6087 3.748C52.7127 3.748 53.5287 4.18 54.0567 5.044C54.6567 4.18 55.5507 3.748 56.7387 3.748ZM64.0748 9.454C64.3868 10.582 65.2328 11.146 66.6128 11.146C67.5008 11.146 68.1728 10.846 68.6288 10.246L70.5008 11.326C69.6128 12.61 68.3048 13.252 66.5768 13.252C65.0888 13.252 63.8948 12.802 62.9948 11.902C62.0948 11.002 61.6448 9.868 61.6448 8.5C61.6448 7.144 62.0888 6.016 62.9768 5.116C63.8648 4.204 65.0048 3.748 66.3968 3.748C67.7168 3.748 68.8028 4.204 69.6548 5.116C70.5188 6.028 70.9508 7.156 70.9508 8.5C70.9508 8.8 70.9208 9.118 70.8608 9.454H64.0748ZM64.0388 7.654H68.6288C68.4968 7.042 68.2208 6.586 67.8008 6.286C67.3928 5.986 66.9248 5.836 66.3968 5.836C65.7728 5.836 65.2568 5.998 64.8488 6.322C64.4408 6.634 64.1708 7.078 64.0388 7.654ZM77.5758 3.748C78.5598 3.748 79.3698 4.078 80.0058 4.738C80.6538 5.398 80.9778 6.31 80.9778 7.474V13H78.6558V7.762C78.6558 7.162 78.4938 6.706 78.1698 6.394C77.8458 6.07 77.4138 5.908 76.8738 5.908C76.2738 5.908 75.7938 6.094 75.4338 6.466C75.0738 6.838 74.8938 7.396 74.8938 8.14V13H72.5718V4H74.8938V5.008C75.4578 4.168 76.3518 3.748 77.5758 3.748ZM88.1084 6.232H86.0744V9.976C86.0744 10.288 86.1524 10.516 86.3084 10.66C86.4644 10.804 86.6924 10.888 86.9924 10.912C87.2924 10.924 87.6644 10.918 88.1084 10.894V13C86.5124 13.18 85.3844 13.03 84.7244 12.55C84.0764 12.07 83.7524 11.212 83.7524 9.976V6.232H82.1864V4H83.7524V2.182L86.0744 1.48V4H88.1084V6.232Z" fill="white"/>
</svg>
