<svg width="42" height="14" viewBox="0 0 42 14" fill="none" xmlns="http://www.w3.org/2000/svg">
<path d="M5.88216 13.252C4.63416 13.252 3.58416 12.976 2.73216 12.424C1.88016 11.86 1.28016 11.098 0.932156 10.138L3.05616 8.896C3.54816 10.18 4.51416 10.822 5.95416 10.822C6.65016 10.822 7.16016 10.696 7.48416 10.444C7.80816 10.192 7.97016 9.874 7.97016 9.49C7.97016 9.046 7.77216 8.704 7.37616 8.464C6.98016 8.212 6.27216 7.942 5.25216 7.654C4.68816 7.486 4.20816 7.318 3.81216 7.15C3.42816 6.982 3.03816 6.76 2.64216 6.484C2.25816 6.196 1.96416 5.836 1.76016 5.404C1.55616 4.972 1.45416 4.468 1.45416 3.892C1.45416 2.752 1.85616 1.846 2.66016 1.174C3.47616 0.489999 4.45416 0.147999 5.59416 0.147999C6.61416 0.147999 7.50816 0.399999 8.27616 0.903999C9.05616 1.396 9.66216 2.086 10.0942 2.974L8.00616 4.18C7.50216 3.1 6.69816 2.56 5.59416 2.56C5.07816 2.56 4.67016 2.68 4.37016 2.92C4.08216 3.148 3.93816 3.448 3.93816 3.82C3.93816 4.216 4.10016 4.54 4.42416 4.792C4.76016 5.032 5.39616 5.296 6.33216 5.584C6.71616 5.704 7.00416 5.8 7.19616 5.872C7.40016 5.932 7.67016 6.034 8.00616 6.178C8.35416 6.31 8.61816 6.436 8.79816 6.556C8.99016 6.676 9.20616 6.838 9.44616 7.042C9.68616 7.246 9.86616 7.456 9.98616 7.672C10.1182 7.888 10.2262 8.152 10.3102 8.464C10.4062 8.764 10.4542 9.094 10.4542 9.454C10.4542 10.618 10.0282 11.542 9.17616 12.226C8.33616 12.91 7.23816 13.252 5.88216 13.252ZM16.8506 6.232H14.8166V9.976C14.8166 10.288 14.8946 10.516 15.0506 10.66C15.2066 10.804 15.4346 10.888 15.7346 10.912C16.0346 10.924 16.4066 10.918 16.8506 10.894V13C15.2546 13.18 14.1266 13.03 13.4666 12.55C12.8186 12.07 12.4946 11.212 12.4946 9.976V6.232H10.9286V4H12.4946V2.182L14.8166 1.48V4H16.8506V6.232ZM25.0465 4H27.3685V13H25.0465V11.938C24.3505 12.814 23.3725 13.252 22.1125 13.252C20.9125 13.252 19.8805 12.796 19.0165 11.884C18.1645 10.96 17.7385 9.832 17.7385 8.5C17.7385 7.168 18.1645 6.046 19.0165 5.134C19.8805 4.21 20.9125 3.748 22.1125 3.748C23.3725 3.748 24.3505 4.186 25.0465 5.062V4ZM20.7625 10.336C21.2305 10.804 21.8245 11.038 22.5445 11.038C23.2645 11.038 23.8585 10.804 24.3265 10.336C24.8065 9.856 25.0465 9.244 25.0465 8.5C25.0465 7.756 24.8065 7.15 24.3265 6.682C23.8585 6.202 23.2645 5.962 22.5445 5.962C21.8245 5.962 21.2305 6.202 20.7625 6.682C20.2945 7.15 20.0605 7.756 20.0605 8.5C20.0605 9.244 20.2945 9.856 20.7625 10.336ZM31.7961 5.548C32.0121 4.972 32.3661 4.54 32.8581 4.252C33.3621 3.964 33.9201 3.82 34.5321 3.82V6.412C33.8241 6.328 33.1881 6.472 32.6241 6.844C32.0721 7.216 31.7961 7.834 31.7961 8.698V13H29.4741V4H31.7961V5.548ZM41.2842 6.232H39.2502V9.976C39.2502 10.288 39.3282 10.516 39.4842 10.66C39.6402 10.804 39.8682 10.888 40.1682 10.912C40.4682 10.924 40.8402 10.918 41.2842 10.894V13C39.6882 13.18 38.5602 13.03 37.9002 12.55C37.2522 12.07 36.9282 11.212 36.9282 9.976V6.232H35.3622V4H36.9282V2.182L39.2502 1.48V4H41.2842V6.232Z" fill="white"/>
</svg>
